# AST/ASF file generated using VICON BodyLanguage
# -----------------------------------------------
:version 1.10
:name VICON
:units
  mass 1.0
  length 0.45
  angle deg
:documentation
   .ast/.asf automatically generated from VICON data using
   VICON BodyBuilder and BodyLanguage model FoxedUp or BRILLIANT.MOD
:root
   order TX TY TZ RX RY RZ
   axis XYZ
   position 0 0 0  
   orientation 0 0 0 
:bonedata
  begin
     id 1 
     name lhipjoint
     direction 0.623415 -0.642378 0.445763 
     length 2.49859 
     axis 0 0 0  XYZ
  end
  begin
     id 2 
     name lfemur
     direction 0.34202 -0.939693 0  
     length 6.69689  
     axis 0 0 20  XYZ
    dof rx ry rz
    limits (-160.0 20.0)
           (-70.0 70.0)
           (-60.0 70.0)
  end
  begin
     id 3 
     name ltibia
     direction 0.34202 -0.939693 0   
     length 7.37574   
     axis 0 0 20   XYZ
    dof rx
    limits (-10.0 170.0)
  end
  begin
     id 4 
     name lfoot
     direction 0.084323 -0.231675 0.969132   
     length 2.09111   
     axis -90 7.62852e-016 20   XYZ
    dof rx rz
    limits (-45.0 90.0)
           (-70.0 20.0)
  end
  begin
     id 5 
     name ltoes
     direction 1.5357e-011 -4.21957e-011 1   
     length 1.04989   
     axis -90 7.62852e-016 20   XYZ
    dof rx
    limits (-90.0 20.0)
  end
  begin
     id 6 
     name rhipjoint
     direction -0.605402 -0.653903 0.45376   
     length 2.45455  
     axis 0 0 0  XYZ 
  end
  begin
     id 7 
     name rfemur
     direction -0.34202 -0.939693 0   
     length 6.64523   
     axis 0 0 -20   XYZ
    dof rx ry rz
    limits (-160.0 20.0)
           (-70.0 70.0)
           (-70.0 60.0)
  end
  begin
     id 8 
     name rtibia
     direction -0.34202 -0.939693 0   
     length 7.3339   
     axis 0 0 -20   XYZ
    dof rx
    limits (-10.0 170.0)
 end
 begin
     id 9 
     name rfoot
     direction -0.120854 -0.332043 0.93549   
     length 2.23135  
     axis -90 -7.62852e-016 -20   XYZ
    dof rx rz
    limits (-45.0 90.0)
           (-20.0 70.0)
  end
  begin
     id 10 
     name rtoes
     direction -1.53563e-011 -4.21914e-011 1   
     length 1.10614   
     axis -90 -7.62852e-016 -20   XYZ
    dof rx
    limits (-90.0 20.0)
  end
  begin
     id 11 
     name lowerback
     direction 0.0319682 0.998615 -0.0417941   
     length 2.02718   
     axis 0 0 0   XYZ
    dof rx ry rz
    limits (-20.0 45.0)
           (-30.0 30.0)
           (-30.0 30.0)
  end
  begin
     id 12 
     name upperback
     direction 7.63181e-005 0.995808 0.0914691   
     length 1.97539   
     axis 0 0 0   XYZ
    dof rx ry rz
    limits (-20.0 45.0)
           (-30.0 30.0)
           (-30.0 30.0)
  end
  begin
     id 13 
     name thorax
     direction -0.016423 0.993627 0.111514   
     length 2.00349   
     axis 0 0 0   XYZ
    dof rx ry rz
    limits (-20.0 45.0)
           (-30.0 30.0)
           (-30.0 30.0)
  end
  begin
     id 14 
     name lowerneck
     direction -0.174763 0.981668 -0.0760716   
     length 1.71436   
     axis 0 0 0   XYZ
    dof rx ry rz
    limits (-20.0 45.0)
           (-30.0 30.0)
           (-30.0 30.0)
  end
  begin
     id 15 
     name upperneck
     direction 0.345458 0.934587 -0.0848868   
     length 1.72805   
     axis 0 0 0   XYZ
    dof rx ry rz
    limits (-20.0 45.0)
           (-30.0 30.0)
           (-30.0 30.0)
  end
  begin
     id 16
     name head
     direction 0.13001 0.989848 -0.0574291  
     length 1.767  
     axis 0 0 0   XYZ
    dof rx ry rz
    limits (-20.0 45.0)
           (-30.0 30.0)
           (-30.0 30.0)
  end
  begin
     id 17 
     name lclavicle
     direction 0.952951 0.290122 0.0878234  
     length 3.54654  
     axis 0 0 0   XYZ
    dof ry rz
    limits (-20.0 10.0)
           (0.0 20.0)
  end
  begin
     id 18 
     name lhumerus
     direction 1 -4.48957e-011 -4.56525e-028   
     length 5.19807   
     axis 180 -30 -90   XYZ
    dof rx ry rz
    limits (-60.0 90.0)
           (-90.0 90.0)
           (-90.0 90.0)
  end
  begin
     id 19
     name lradius
     direction 1 -4.48979e-011 -2.0317e-027   
     length 3.0937   
     axis 180 -30 -90   XYZ
    dof rx
    limits (-10.0 170.0)
  end
  begin
     id 20
     name lwrist
     direction 1 -4.48953e-011 -3.05809e-027   
     length 1.54685   
     axis 8.48514e-016 90 90   XYZ
    dof ry
    limits (-180.0 0.0)
 end
  begin
     id 21 
     name lhand
     direction 1 -4.48952e-011 -6.11639e-027   
     length 0.672632   
     axis 3.9013e-015 90 90   XYZ
    dof rx rz
    limits (-90.0 90.0)
           (-45.0 45.0)
  end
  begin
     id 22 
     name lfingers
     direction 1 -4.48925e-011 -1.22426e-026   
     length 0.542293   
     axis 7.80276e-015 90 90   XYZ
    dof rx
    limits (0.0 90.0)
  end
  begin
     id 23
     name lthumb
     direction 0.707107 -6.3486e-011 0.707107   
     length 0.778628   
     axis -90 45 5.37419e-014   XYZ
    dof rx rz
    limits (-45.0 45.0)
           (-45.0 45.0)
  end
  begin
     id 24 
     name rclavicle
     direction -0.960732 0.273675 -0.0457849   
     length 3.52079  
     axis 0 0 0   XYZ 
    dof ry rz
    limits (-10.0 20.0)
           (-20.0 0.0)
  end
  begin
     id 25 
     name rhumerus
     direction -1 -4.48976e-011 -1.63613e-027  
     length 5.45222   
     axis 180 30 90   XYZ
    dof rx ry rz
    limits (-90.0 60.0)
           (-90.0 90.0)
           (-90.0 90.0)
  end
  begin
     id 26 
     name rradius
     direction -1 -4.48957e-011 -7.00033e-028   
     length 3.01284   
     axis 180 30 90   XYZ
    dof rx
    limits (-10.0 170.0)
  end
  begin
     id 27 
     name rwrist
     direction -1 -4.48983e-011 -3.05543e-027   
     length 1.50642   
     axis 8.48514e-016 -90 -90   XYZ
    dof ry
    limits (-180.0 0.0)
  end
  begin
     id 28
     name rhand
     direction -1 -4.48984e-011 -6.11072e-027   
     length 0.622296   
     axis 3.9013e-015 -90 -90   XYZ
    dof rx rz
    limits (-90.0 90.0)
           (-45.0 45.0)
  end
  begin
     id 29
     name rfingers
     direction -1 -4.48865e-011 -1.22637e-026   
     length 0.501711   
     axis 7.80276e-015 -90 -90   XYZ
    dof rx
    limits (0.0 90.0)
  end
  begin
     id 30
     name rthumb
     direction -0.707107 -6.34932e-011 0.707107   
     length 0.72036   
     axis -90 -45 -5.37419e-014   XYZ
    dof rx rz
    limits (-45.0 45.0)
           (-45.0 45.0)
  end
:hierarchy
  begin
    root lhipjoint rhipjoint lowerback
    lhipjoint lfemur
    lfemur ltibia
    ltibia lfoot
    lfoot ltoes
    rhipjoint rfemur
    rfemur rtibia
    rtibia rfoot
    rfoot rtoes
    lowerback upperback
    upperback thorax
    thorax lowerneck lclavicle rclavicle
    lowerneck upperneck
    upperneck head
    lclavicle lhumerus
    lhumerus lradius
    lradius lwrist
    lwrist lhand lthumb
    lhand lfingers
    rclavicle rhumerus
    rhumerus rradius
    rradius rwrist
    rwrist rhand rthumb
    rhand rfingers
  end

#!OML:ASF H:\Not Pregnant\Project 1\Capture day 1\Session 1\non-pregnant.ASF
:FULLY-SPECIFIED
:DEGREES
51
root 4.59783 15.4258 35.0574 -164.78 -2.95615 -178.805
lowerback -1.0961 0.614496 -3.39922
upperback -5.88246 0.307894 -1.30935
thorax -5.49945 0.117122 0.547886
lowerneck 21.3274 -8.84086 -29.1889
upperneck -6.87804 -23.1337 42.5348
head 3.93004 -15.3253 20.555
rclavicle -1.40143e-014 2.62396e-014
rhumerus -40.7995 -16.0946 -78.7878
rradius 25.2353
rwrist 28.7303
rhand -11.2425 -2.3277
rfingers 7.12502
rthumb 14.7869 -31.7802
lclavicle -1.40143e-014 2.62396e-014
lhumerus -45.4565 -10.2491 90.5298
lradius 27.3205
lwrist 27.8944
lhand -16.0625 -10.5771
lfingers 7.12502
lthumb 10.1399 19.1586
rfemur -49.9388 1.12599 26.5521
rtibia 26.6173
rfoot -6.73656 11.1404
rtoes -20.6577
lfemur -1.73483 1.41769 -21.9045
ltibia 12.8164
lfoot -21.1224 -8.24538
ltoes -27.2564
52
root 4.59964 15.4156 34.9297 -164.74 -3.04332 -178.848
lowerback -1.25568 0.61446 -3.37315
upperback -5.95479 0.300993 -1.32033
thorax -5.48445 0.10736 0.523131
lowerneck 21.3213 -8.84253 -29.214
upperneck -6.81498 -23.1667 42.506
head 3.95941 -15.3378 20.5335
rclavicle -3.27995e-015 2.22639e-014
rhumerus -41.1359 -16.4604 -78.3718
rradius 24.8981
rwrist 29.3394
rhand -11.1747 -2.25723
rfingers 7.12502
rthumb 14.8522 -31.7049
lclavicle -3.27995e-015 2.22639e-014
lhumerus -45.4224 -9.94734 90.3698
lradius 27.4386
lwrist 27.8069
lhand -16.0074 -10.6701
lfingers 7.12502
lthumb 10.193 19.063
rfemur -49.868 1.3131 26.5123
rtibia 26.7388
rfoot -6.66865 11.5361
rtoes -20.696
lfemur -0.858962 1.23747 -21.8806
ltibia 11.9954
lfoot -20.6487 -8.36518
ltoes -28.2707
53
root 4.60113 15.4058 34.7987 -164.705 -3.12622 -178.894
lowerback -1.43141 0.614078 -3.33859
upperback -6.0294 0.293654 -1.32999
thorax -5.46257 0.0965785 0.495102
lowerneck 21.3146 -8.83914 -29.2497
upperneck -6.74599 -23.1892 42.4643
head 3.98493 -15.3422 20.5099
rclavicle -2.68359e-015 2.3059e-014
rhumerus -41.4732 -16.8015 -77.9609
rradius 24.5572
rwrist 29.898
rhand -11.0982 -2.18626
rfingers 7.12502
rthumb 14.9259 -31.6285
lclavicle -2.68359e-015 2.3059e-014
lhumerus -45.4145 -9.58742 90.1829
lradius 27.6058
lwrist 27.7862
lhand -15.9646 -10.7381
lfingers 7.12502
lthumb 10.2343 18.993
rfemur -49.7897 1.48663 26.4879
rtibia 26.9873
rfoot -6.47566 12.0109
rtoes -20.6084
lfemur 0.0788051 1.1023 -21.8576
ltibia 11.0907
lfoot -20.0973 -8.57791
ltoes -29.1904
54
root 4.60229 15.3971 34.6643 -164.674 -3.20762 -178.943
lowerback -1.63516 0.613129 -3.2941
upperback -6.10139 0.28652 -1.33829
thorax -5.42185 0.0849588 0.463099
lowerneck 21.3 -8.83383 -29.2991
upperneck -6.67007 -23.2053 42.412
head 4.011 -15.3402 20.4836
rclavicle -2.48481e-015 6.59965e-014
rhumerus -41.8076 -17.1156 -77.5609
rradius 24.2287
rwrist 30.3892
rhand -10.9675 -2.13568
rfingers 7.12502
rthumb 15.0518 -31.5685
lclavicle -2.48481e-015 6.59965e-014
lhumerus -45.4219 -9.1806 89.976
lradius 27.8186
lwrist 27.8371
lhand -15.9256 -10.7522
lfingers 7.12502
lthumb 10.2719 18.977
rfemur -49.7113 1.64104 26.4797
rtibia 27.3787
rfoot -6.104 12.5591
rtoes -20.1903
lfemur 1.10425 1.01049 -21.8322
ltibia 10.0425
lfoot -19.4427 -8.8563
ltoes -30.0099
55
root 4.60301 15.3899 34.5265 -164.647 -3.26812 -178.989
lowerback -1.87259 0.617421 -3.23436
upperback -6.1715 0.287325 -1.34561
thorax -5.36004 0.0759642 0.423533
lowerneck 21.2869 -8.822 -29.3694
upperneck -6.59995 -23.2128 42.3602
head 4.03493 -15.3334 20.4645
rclavicle -1.16289e-014 1.74931e-014
rhumerus -42.1314 -17.4219 -77.1578
rradius 23.8918
rwrist 30.8587
rhand -10.7919 -2.06921
rfingers 7.12502
rthumb 15.221 -31.4893
lclavicle -1.16289e-014 1.74931e-014
lhumerus -45.449 -8.74248 89.7625
lradius 28.0716
lwrist 27.993
lhand -15.9188 -10.7759
lfingers 7.12502
lthumb 10.2785 18.953
rfemur -49.6325 1.81056 26.4739
rtibia 27.9148
rfoot -5.53772 13.1257
rtoes -19.2527
lfemur 2.25307 0.863075 -21.8078
ltibia 8.78482
lfoot -18.625 -9.12077
ltoes -30.7309
56
root 4.6035 15.3845 34.3858 -164.625 -3.32104 -179.039
lowerback -2.11713 0.625033 -3.16719
upperback -6.24382 0.291953 -1.35305
thorax -5.29663 0.0682162 0.379633
lowerneck 21.2603 -8.81131 -29.4456
upperneck -6.52016 -23.2157 42.2951
head 4.06013 -15.3204 20.4382
rclavicle -1.06101e-014 2.54444e-014
rhumerus -42.4506 -17.7127 -76.7579
rradius 23.5685
rwrist 31.2952
rhand -10.5547 -1.98502
rfingers 7.12502
rthumb 15.4495 -31.3876
lclavicle -1.06101e-014 2.54444e-014
lhumerus -45.4984 -8.28291 89.5466
lradius 28.3672
lwrist 28.2373
lhand -15.9482 -10.7773
lfingers 7.12502
lthumb 10.2502 18.9529
rfemur -49.5577 1.99955 26.4515
rtibia 28.583
rfoot -4.80588 13.6536
rtoes -17.7414
lfemur 3.55888 0.719657 -21.7848
ltibia 7.24465
lfoot -17.6067 -9.44846
ltoes -31.2953
57
root 4.60389 15.381 34.2422 -164.609 -3.36332 -179.084
lowerback -2.37408 0.638368 -3.08371
upperback -6.31082 0.304849 -1.36219
thorax -5.2206 0.063625 0.324786
lowerneck 21.209 -8.81085 -29.5139
upperneck -6.43654 -23.2178 42.2164
head 4.08656 -15.3018 20.3981
rclavicle 4.99446e-015 1.35174e-014
rhumerus -42.7578 -18.0021 -76.3647
rradius 23.2612
rwrist 31.7283
rhand -10.27 -1.87964
rfingers 7.12502
rthumb 15.7236 -31.2609
lclavicle 4.99446e-015 1.35174e-014
lhumerus -45.55 -7.80976 89.3228
lradius 28.692
lwrist 28.5598
lhand -15.9919 -10.7837
lfingers 7.12502
lthumb 10.208 18.9486
rfemur -49.488 2.24455 26.3961
rtibia 29.3556
rfoot -3.98192 14.0771
rtoes -15.5422
lfemur 5.08248 0.586644 -21.7576
ltibia 5.30439
lfoot -16.3554 -9.83569
ltoes -31.9101
58
root 4.60442 15.3787 34.0964 -164.594 -3.39031 -179.119
lowerback -2.62367 0.657333 -2.98937
upperback -6.39032 0.322998 -1.36643
thorax -5.16212 0.0609349 0.268829
lowerneck 21.1503 -8.80924 -29.5833
upperneck -6.33345 -23.2133 42.1153
head 4.11231 -15.2755 20.3463
rclavicle -8.77137e-015 -7.95139e-015
rhumerus -43.0721 -18.2599 -75.9804
rradius 22.9696
rwrist 32.1622
rhand -9.95241 -1.75821
rfingers 7.12502
rthumb 16.0295 -31.1151
lclavicle -8.77137e-015 -7.95139e-015
lhumerus -45.6307 -7.31162 89.0956
lradius 29.0467
lwrist 28.9422
lhand -16.0801 -10.8147
lfingers 7.12502
lthumb 10.1229 18.9218
rfemur -49.4336 2.57112 26.2992
rtibia 30.1986
rfoot -3.20356 14.3134
rtoes -13.0372
lfemur 7.07923 0.468169 -21.7213
ltibia 2.46028
lfoot -14.6185 -10.336
ltoes -32.5657
59
root 4.6055 15.3769 33.9494 -164.581 -3.39761 -179.138
lowerback -2.86197 0.684981 -2.88473
upperback -6.47437 0.351577 -1.36624
thorax -5.11507 0.0630549 0.211547
lowerneck 21.0806 -8.81211 -29.638
upperneck -6.2233 -23.202 41.9958
head 4.1331 -15.2418 20.2812
rclavicle -4.22417e-016 -1.11319e-014
rhumerus -43.3758 -18.5076 -75.607
rradius 22.6964
rwrist 32.6125
rhand -9.5962 -1.64333
rfingers 7.12502
rthumb 16.3725 -30.9723
lclavicle -4.22417e-016 -1.11319e-014
lhumerus -45.7167 -6.79453 88.8583
lradius 29.418
lwrist 29.3525
lhand -16.1816 -10.8512
lfingers 7.12502
lthumb 10.0249 18.8901
rfemur -49.3951 3.00883 26.1529
rtibia 31.0799
rfoot -2.57507 14.3035
rtoes -10.5441
lfemur 8.87268 0.370221 -21.6645
ltibia -6.36111e-015
lfoot -12.9868 -10.8537
ltoes -33.172
60
root 4.60698 15.3748 33.8014 -164.572 -3.37988 -179.134
lowerback -3.08827 0.720882 -2.76285
upperback -6.56404 0.390057 -1.35792
thorax -5.0808 0.0694748 0.152952
lowerneck 21.0088 -8.81234 -29.6843
upperneck -6.10717 -23.1781 41.8601
head 4.14609 -15.1992 20.2089
rclavicle -3.49116e-015 -7.95139e-016
rhumerus -43.6705 -18.7347 -75.2468
rradius 22.4427
rwrist 33.0798
rhand -9.2181 -1.53708
rfingers 7.12502
rthumb 16.7365 -30.8357
lclavicle -3.49116e-015 -7.95139e-016
lhumerus -45.8129 -6.2532 88.612
lradius 29.8005
lwrist 29.7836
lhand -16.2975 -10.9026
lfingers 7.12502
lthumb 9.91315 18.844
rfemur -49.3657 3.54419 25.9776
rtibia 31.9777
rfoot -2.18051 14.0698
rtoes -8.40536
lfemur 9.3785 0.303039 -21.5723
ltibia 5.725e-014
lfoot -12.4295 -11.1906
ltoes -33.7179
61
root 4.6089 15.3716 33.6532 -164.571 -3.32614 -179.104
lowerback -3.29533 0.768591 -2.6238
upperback -6.65825 0.44311 -1.34268
thorax -5.06228 0.082589 0.0917778
lowerneck 20.9342 -8.80973 -29.7267
upperneck -5.98758 -23.1458 41.7165
head 4.15483 -15.1511 20.1339
rclavicle 3.97569e-015 -2.38542e-015
rhumerus -43.9452 -18.947 -74.9019
rradius 22.1998
rwrist 33.5697
rhand -8.82672 -1.45262
rfingers 7.12502
rthumb 17.1132 -30.7189
lclavicle 3.97569e-015 -2.38542e-015
lhumerus -45.9179 -5.69797 88.3603
lradius 30.1892
lwrist 30.2334
lhand -16.4219 -10.9739
lfingers 7.12502
lthumb 9.79313 18.7783
rfemur -49.3363 4.16472 25.7892
rtibia 32.8809
rfoot -2.05215 13.6741
rtoes -6.82328
lfemur 9.88941 0.275351 -21.4511
ltibia 3.18055e-014
lfoot -11.7475 -11.6424
ltoes -34.1249
62
root 4.61108 15.3672 33.5053 -164.586 -3.23997 -179.052
lowerback -3.4908 0.821924 -2.46904
upperback -6.74111 0.505142 -1.31853
thorax -5.03811 0.100262 0.0311015
lowerneck 20.8407 -8.80697 -29.7664
upperneck -5.86686 -23.1023 41.5667
head 4.16117 -15.0947 20.0555
rclavicle -1.09704e-014 1.59028e-014
rhumerus -44.1759 -19.1601 -74.571
rradius 21.9632
rwrist 34.1043
rhand -8.42982 -1.37198
rfingers 7.12502
rthumb 17.4952 -30.6047
lclavicle -1.09704e-014 1.59028e-014
lhumerus -46.009 -5.12355 88.1017
lradius 30.5773
lwrist 30.6992
lhand -16.5423 -11.0799
lfingers 7.12502
lthumb 9.67701 18.6778
rfemur -49.2901 4.83069 25.6111
rtibia 33.7843
rfoot -2.16076 13.1781
rtoes -5.80164
lfemur 10.4099 0.283013 -21.3033
ltibia -6.36111e-014
lfoot -10.9047 -12.2012
ltoes -34.3843
